# xmcd CD database file
#
# Track frame offsets:
#	183
#	11545
#	23808
#	34870
#	46655
#	57408
#	67263
#	77885
#	87995
#	98885
#
# Disc length: 1484 seconds
#
# Revision: 0
# Processed by: cddbd v1.5.2PL0 Copyright (c) Steve Scherf et al.
# Submitted via: CDex 1.80
#
DISCID=7c05ca0a
DTITLE=Various Artist - Country Spotlight On Dolly Parton and Kitty Wells [CD1]
DYEAR=1900
DGENRE=Country
TTITLE0=Dumb Blonde - Dolly Parton
TTITLE1=Fuel To The Flame - Dolly Parton
TTITLE2=The Little Things - Dolly Parton
TTITLE3=The Company You Keep - Dolly Parton
TTITLE4=Why, Why, Why - Dolly Parton
TTITLE5=Something fishy - Dolly Parton
TTITLE6=Put It Off Until Tomorrow - Dolly Parton
TTITLE7=I'm In No Condition - Dolly Parton
TTITLE8=Too Lonely Too Long - Dolly Parton
TTITLE9=As Long As I Love - Dolly Parton
EXTD=
EXTT0=
EXTT1=
EXTT2=
EXTT3=
EXTT4=
EXTT5=
EXTT6=
EXTT7=
EXTT8=
EXTT9=
PLAYORDER=
